<svg width="557" height="438" viewBox="0 0 557 438" fill="none" xmlns="http://www.w3.org/2000/svg">
<g clip-path="url(#clip0_70_1413)">
<path d="M202.74 76.0002L126.74 152L177.407 202.667L228.074 253.333L240.74 240.667L253.407 228L215.407 190L177.407 152L240.74 88.6668L304.074 25.3335L291.407 12.6668L278.74 0.000149548L202.74 76.0002Z" fill="black"/>
<path d="M278.741 101.333L228.074 152L253.408 177.333L278.741 202.667L291.408 190L304.074 177.333L291.408 164.667L278.741 152L303.808 126.933L328.741 102L353.674 127.067L378.741 152L341.674 189.067C321.408 209.333 304.741 226.667 304.741 227.333C304.741 228.133 310.341 234.267 317.141 241.067L329.408 253.333L380.074 202.667L430.741 152L380.074 101.333L329.408 50.6668L278.741 101.333Z" fill="black"/>
<path d="M12.7409 266L0.0742188 278.666L76.0742 354.666L152.074 430.667L215.408 367.333L278.741 304L341.808 366.933L404.741 430L480.741 354L556.741 278L544.074 265.333L531.408 252.666L468.074 316L404.741 379.333L341.408 316L278.074 252.666L215.008 315.733L152.074 378.667L89.4076 316C55.0076 281.6 26.4742 253.333 26.0742 253.333C25.6742 253.333 19.6742 259.066 12.7409 266Z" fill="black"/>
</g>
<defs>
<clipPath id="clip0_70_1413">
<rect width="557" height="438" fill="white"/>
</clipPath>
</defs>
</svg>
